<svg xmlns="http://www.w3.org/2000/svg" viewBox="0 0 64 64"><defs><style>.cls-1{fill:#00b771;}.cls-2{fill:#00e58d;}</style></defs><title>Link</title><g id="Layer_2" data-name="Layer 2"><g id="Layer_1-2" data-name="Layer 1"><path class="cls-1" d="M38.62,25.38a18.4,18.4,0,0,0-26,0L5.38,32.62a18.38,18.38,0,0,0,26,26l7.24-7.24a18.4,18.4,0,0,0,0-26ZM33,45.73,25.73,53A10.39,10.39,0,0,1,11,38.27L18.27,31A10.39,10.39,0,0,1,33,45.73Z"/><path class="cls-2" d="M58.62,5.38a18.4,18.4,0,0,0-26,0l-7.24,7.24a18.31,18.31,0,0,0-4.7,8.06A18.35,18.35,0,0,0,34.6,43.6,10.38,10.38,0,0,0,36,38.38a10.05,10.05,0,0,0-.38-2.76,10.37,10.37,0,0,1-7.24-7.24A10.05,10.05,0,0,1,28,25.62a10.38,10.38,0,0,1,1.4-5.22A10.1,10.1,0,0,1,31,18.27L38.27,11A10.39,10.39,0,0,1,53,25.73L45.73,33A10.1,10.1,0,0,1,43.6,34.6a18.19,18.19,0,0,1-.28,8.72,16.76,16.76,0,0,0,2.1-.72,18.44,18.44,0,0,0,6-4l7.24-7.24a18.4,18.4,0,0,0,0-26Z"/></g></g></svg>